<svg width="123" height="46" viewBox="0 0 123 46" fill="none" xmlns="http://www.w3.org/2000/svg">
<path d="M60.0477 20.0251C59.7549 19.7322 59.7549 19.2574 60.0477 18.9645C60.3407 18.6716 60.8156 18.6716 61.1084 18.9645L63.5834 21.4394L66.0582 18.9645C66.3511 18.6716 66.8259 18.6716 67.1189 18.9645C67.4117 19.2573 67.4117 19.7322 67.1189 20.0251L64.6439 22.5L67.1189 24.9749C67.4117 25.2678 67.4117 25.7427 67.1189 26.0355C66.8259 26.3284 66.3511 26.3284 66.0582 26.0355L63.5834 23.5607L61.1084 26.0355C60.8156 26.3284 60.3407 26.3284 60.0479 26.0355C59.7549 25.7426 59.7549 25.2678 60.0479 24.9749L62.5227 22.5001L60.0477 20.0251Z" fill="black"/>
<path fill-rule="evenodd" clip-rule="evenodd" d="M56.9547 14.8787L49.3334 22.5L56.9547 30.1213C57.5173 30.684 58.2804 31 59.076 31H69.3334C70.9902 31 72.3334 29.6569 72.3334 28V17C72.3334 15.3431 70.9902 14 69.3334 14H59.076C58.2804 14 57.5173 14.3161 56.9547 14.8787ZM69.3334 29.7H59.076C58.6251 29.7 58.1927 29.5209 57.8739 29.2021L51.1719 22.5L57.8739 15.7979C58.1927 15.4791 58.6251 15.3 59.076 15.3H69.3334C70.2722 15.3 71.0333 16.0611 71.0333 17V28C71.0333 28.9389 70.2722 29.7 69.3334 29.7Z" fill="black"/>
</svg>
