<svg width="105" height="49" viewBox="0 0 105 49" fill="none" xmlns="http://www.w3.org/2000/svg">
<rect width="105" height="49" rx="24.5" fill="#2C3E50"/>
<rect x="42" y="14" width="21" height="21" stroke="#2C3E50" stroke-width="3"/>
<path d="M62.884 23.699L43.084 15.59V15.599C42.941 15.536 42.776 15.5 42.6 15.5C41.995 15.5 41.5 15.905 41.5 16.4V23.6V25.4V32.6C41.5 33.095 41.995 33.5 42.6 33.5C42.776 33.5 42.941 33.455 43.084 33.401V33.41L62.884 25.31V25.301C63.247 25.157 63.5 24.86 63.5 24.5C63.5 24.14 63.247 23.852 62.884 23.699ZM43.7 28.1C43.7 26.606 45.174 25.4 47 25.4H51.4C52.005 25.4 52.5 24.995 52.5 24.5C52.5 24.005 52.005 23.6 51.4 23.6H47C45.174 23.6 43.7 22.394 43.7 20.9V17.858L59.936 24.5L43.7 31.142V28.1Z" fill="#C9B37C"/>
</svg>
